# xmcd CD database file
#
# Track frame offsets:
#	182
#	11925
#	45497
#	70037
#	90677
#	111002
#	146250
#	164152
#	180010
#	204402
#	225445
#	243952
#	292997
#
# Disc length: 4391 seconds
#
# Revision: 5
# Processed by: cddbd v1.5.2PL0 Copyright (c) Steve Scherf et al.
# Submitted via: CDex 1.76
#
DISCID=a311250d
DTITLE=Alvin Lee and Ten Years After - Pure Blues
DYEAR=1995
DGENRE=Blues
TTITLE0=Ten Years After - Don't Want You Woman
TTITLE1=Alvin Lee - The Bluest Blues
TTITLE2=Ten Years After - I Woke Up This Morning
TTITLE3=Alvin Lee - Real Life Blues
TTITLE4=Ten Years After - The Stomp
TTITLE5=Ten Years After - Slow Blues In 'C'
TTITLE6=Alvin Lee - Wake Up Moma
TTITLE7=Alvin Lee - Talk Don't Bother Me
TTITLE8=Alvin Lee - Every Blues You've Ever Heard
TTITLE9=Ten Years After - I Get All Shook Up
TTITLE10=Alvin Lee - Lost In Love
TTITLE11=Ten Years After - Help Me
TTITLE12=Alvin Lee - Outside My Window
EXTD=YEAR: 1995
EXTT0=
EXTT1=
EXTT2=
EXTT3=
EXTT4=
EXTT5=
EXTT6=
EXTT7=
EXTT8=
EXTT9=
EXTT10=
EXTT11=
EXTT12=
PLAYORDER=
